<svg width="10" height="10" viewBox="0 0 10 10" fill="none" xmlns="http://www.w3.org/2000/svg">
<path fill-rule="evenodd" clip-rule="evenodd" d="M5.53306 1.53209L6.25823 3.05323C6.3293 3.20256 6.46648 3.30611 6.62556 3.33008L8.24778 3.57526C8.64858 3.63602 8.80807 4.14606 8.51801 4.43831L7.34494 5.62185C7.22966 5.73824 7.17718 5.90554 7.20445 6.06985L7.48129 7.74076C7.54947 8.1541 7.13049 8.46945 6.77224 8.27391L5.32233 7.48445C5.18019 7.407 5.00995 7.407 4.8674 7.48445L3.41749 8.27391C3.05924 8.46945 2.64026 8.1541 2.70885 7.74076L2.98528 6.06985C3.01255 5.90554 2.96008 5.73824 2.84479 5.62185L1.67172 4.43831C1.38166 4.14606 1.54115 3.63602 1.94195 3.57526L3.56417 3.33008C3.72325 3.30611 3.86085 3.20256 3.93192 3.05323L4.65667 1.53209C4.836 1.15597 5.35373 1.15597 5.53306 1.53209Z" stroke="#FD6A30" stroke-width="1.5" stroke-linecap="round" stroke-linejoin="round"/>
</svg>
